# xmcd
#
# Track frame offsets:
# 150
# 10875
# 26211
# 41387
# 61172
# 69988
# 82509
# 100165
# 115428
# 128856
# 143541
# 153577
# 164146
# 179027
#
# Disc length: 2629 seconds
#
#
# Revision: 0
# Processed by: cddbd v1.5.1PL2 Copyright (c) Steve Scherf et al.
# Submitted via: FreeRIP 2.944 
#
DISCID=b70a430e
DTITLE=The Faithful Calling - The Narrow Road
DYEAR=2003
DGENRE=Christian Blues
TTITLE0=He Delivered Me
TTITLE1=Man In The Middle
TTITLE2=The Narrow Road
TTITLE3=Beautiful Altar of Prayer
TTITLE4=Sun of My Live
TTITLE5=Canaan's Land
TTITLE6=Little Black Train
TTITLE7=Beautiful Live
TTITLE8=What a Friend We Have In Jesus
TTITLE9=The Baptism of Jesse Taylor
TTITLE10=Travelin' Shoes
TTITLE11=Sail On
TTITLE12=Hail, King of The Jews
TTITLE13=When the Roll Is Called Up Yonder
EXTD=
EXTT0=
EXTT1=
EXTT2=
EXTT3=
EXTT4=
EXTT5=
EXTT6=
EXTT7=
EXTT8=
EXTT9=
EXTT10=
EXTT11=
EXTT12=
EXTT13=
PLAYORDER=
